FFmpeg version 0.6.5, Copyright (c) 2000-2010 the FFmpeg developers
  built on Feb  8 2012 21:15:52 with gcc 4.5.2
  configuration: --enable-gpl --enable-libmp3lame --enable-libxvid --enable-libfaac --enable-nonfree --enable-libspeex --enable-libtheora --enable-libvorbis --enable-libvpx --enable-bzlib --enable-libopencore-amrnb --enable-libopencore-amrwb --enable-nonfree --enable-version3 --enable-libx264
  libavutil     50.15. 1 / 50.15. 1
  libavcodec    52.72. 2 / 52.72. 2
  libavformat   52.64. 2 / 52.64. 2
  libavdevice   52. 2. 0 / 52. 2. 0
  libswscale     0.11. 0 /  0.11. 0
Input #0, mov,mp4,m4a,3gp,3g2,mj2, from '/home/alex1442/Документы/www/000.dn/htdocs/videos/26/Ufa-RB-0.mp4':
  Metadata:
    major_brand     : isom
    minor_version   : 512
    compatible_brands: mp41
    encoder         : avc2.0.11.1110
    encoder-jpn     : avc2.0.11.1110
  Duration: 00:03:09.89, start: 0.000000, bitrate: 182 kb/s
    Stream #0.0(eng): Video: mpeg4, yuv420p, 176x144 [PAR 1:1 DAR 11:9], 68 kb/s, 11 fps, 11 tbr, 90k tbn, 11 tbc
    Stream #0.1(eng): Audio: aac, 22050 Hz, stereo, s16, 111 kb/s
[libvpx @ 0x1bb7ed0]v0.9.6
Output #0, webm, to '/home/alex1442/Документы/www/000.dn/htdocs/videos/26/video.webm':
  Metadata:
    encoder         : Lavf52.64.2
    Stream #0.0(eng): Video: libvpx, yuv420p, 176x144 [PAR 1:1 DAR 11:9], q=2-31, 100 kb/s, 1k tbn, 11 tbc
    Stream #0.1(eng): Audio: libvorbis, 22050 Hz, 1 channels, s16, 64 kb/s
Stream mapping:
  Stream #0.0 -> #0.0
  Stream #0.1 -> #0.1
Press [q] to stop encoding
frame=   64 fps=  0 q=0.0 size=     105kB time=5.82 bitrate= 147.8kbits/s    frame=  138 fps=134 q=0.0 size=     205kB time=12.54 bitrate= 134.0kbits/s    frame=  219 fps=141 q=0.0 size=     325kB time=19.91 bitrate= 133.6kbits/s    frame=  264 fps=128 q=0.0 size=     517kB time=24.00 bitrate= 176.5kbits/s    frame=  311 fps=122 q=0.0 size=     621kB time=28.27 bitrate= 180.0kbits/s    frame=  361 fps=118 q=0.0 size=     696kB time=32.82 bitrate= 173.7kbits/s    frame=  412 fps=116 q=0.0 size=     799kB time=37.45 bitrate= 174.9kbits/s    frame=  470 fps=116 q=0.0 size=     909kB time=42.73 bitrate= 174.3kbits/s    frame=  518 fps=113 q=0.0 size=    1012kB time=47.09 bitrate= 176.1kbits/s    frame=  569 fps=112 q=0.0 size=    1083kB time=51.73 bitrate= 171.5kbits/s    frame=  620 fps=111 q=0.0 size=    1189kB time=56.36 bitrate= 172.9kbits/s    frame=  671 fps=110 q=0.0 size=    1293kB time=61.00 bitrate= 173.7kbits/s    frame=  725 fps=110 q=0.0 size=    1394kB time=65.91 bitrate= 173.3kbits/s    frame=  777 fps=110 q=0.0 size=    1493kB time=70.64 bitrate= 173.2kbits/s    frame=  834 fps=110 q=0.0 size=    1586kB time=75.82 bitrate= 171.3kbits/s    frame=  885 fps=109 q=0.0 size=    1682kB time=80.45 bitrate= 171.2kbits/s    frame=  936 fps=109 q=0.0 size=    1757kB time=85.09 bitrate= 169.1kbits/s    frame=  986 fps=108 q=0.0 size=    1856kB time=89.64 bitrate= 169.6kbits/s    frame= 1031 fps=107 q=0.0 size=    1964kB time=93.73 bitrate= 171.7kbits/s    frame= 1083 fps=107 q=0.0 size=    2036kB time=98.45 bitrate= 169.4kbits/s    frame= 1133 fps=107 q=0.0 size=    2143kB time=103.00 bitrate= 170.4kbits/s    frame= 1187 fps=107 q=0.0 size=    2237kB time=107.91 bitrate= 169.8kbits/s    frame= 1238 fps=106 q=0.0 size=    2341kB time=112.55 bitrate= 170.4kbits/s    frame= 1297 fps=107 q=0.0 size=    2434kB time=117.91 bitrate= 169.1kbits/s    frame= 1351 fps=107 q=0.0 size=    2535kB time=122.82 bitrate= 169.1kbits/s    frame= 1402 fps=107 q=0.0 size=    2643kB time=127.45 bitrate= 169.9kbits/s    frame= 1452 fps=106 q=0.0 size=    2715kB time=132.00 bitrate= 168.5kbits/s    frame= 1498 fps=106 q=0.0 size=    2822kB time=136.18 bitrate= 169.8kbits/s    frame= 1550 fps=106 q=0.0 size=    2923kB time=140.91 bitrate= 169.9kbits/s    frame= 1598 fps=105 q=0.0 size=    3019kB time=145.27 bitrate= 170.2kbits/s    frame= 1647 fps=105 q=0.0 size=    3097kB time=149.73 bitrate= 169.5kbits/s    frame= 1694 fps=105 q=0.0 size=    3202kB time=154.00 bitrate= 170.3kbits/s    frame= 1742 fps=105 q=0.0 size=    3277kB time=158.36 bitrate= 169.5kbits/s    frame= 1787 fps=104 q=0.0 size=    3359kB time=162.46 bitrate= 169.4kbits/s    frame= 1836 fps=104 q=0.0 size=    3461kB time=166.91 bitrate= 169.9kbits/s    frame= 1884 fps=104 q=0.0 size=    3568kB time=171.27 bitrate= 170.6kbits/s    frame= 1937 fps=104 q=0.0 size=    3666kB time=176.09 bitrate= 170.5kbits/s    frame= 1989 fps=104 q=0.0 size=    3762kB time=180.82 bitrate= 170.4kbits/s    frame= 2037 fps=104 q=0.0 size=    3832kB time=185.18 bitrate= 169.5kbits/s    frame= 2089 fps=104 q=0.0 Lsize=    3928kB time=188.95 bitrate= 170.3kbits/s    
video:2366kB audio:1476kB global headers:4kB muxing overhead 2.139678%
